<svg width="24" height="24" viewBox="0 0 22.74 24" fill="none" xmlns="http://www.w3.org/2000/svg">
    <path d="M22.7368 12.2518C22.7368 11.1211 22.5819 10.0273 22.2936 8.99292C22.0264 8.03654 22.0557 7.02148 22.3439 6.07097C22.8541 4.38787 22.3959 2.48516 21.0085 1.22367C19.627 -0.0327844 17.7034 -0.312742 16.0814 0.342728C15.1548 0.716564 14.1444 0.810442 13.1584 0.64867C12.5753 0.553115 11.9771 0.503662 11.368 0.503662C5.08959 0.502824 0 5.76335 0 12.2518C0 14.2073 0.462461 16.0505 1.28015 17.6725C1.51305 18.1343 1.56332 18.6674 1.41503 19.1619C1.17794 19.9523 1.35555 20.8434 1.95876 21.4896C2.55778 22.1317 3.42741 22.3705 4.22666 22.1945C4.73353 22.083 5.26133 22.1769 5.70788 22.4418C7.37425 23.4334 9.30703 24 11.368 24C12.8651 24 14.2952 23.7008 15.6047 23.1568C16.0605 22.9673 16.5657 22.9489 17.0407 23.083C18.3954 23.4661 19.911 23.0771 20.9096 21.954C21.8153 20.9356 22.0716 19.5659 21.7105 18.3489C21.5732 17.8862 21.6058 17.3875 21.7935 16.9432C22.4 15.5066 22.7368 13.9198 22.7368 12.2518ZM10.2613 22.1065C8.97024 22.1065 7.74371 21.7981 6.63783 21.2448C6.23988 21.0454 6.02875 20.6103 6.08656 20.1694C6.17788 19.483 5.97178 18.7621 5.4624 18.2156C4.9346 17.6498 4.1965 17.3975 3.48186 17.4654C3.05208 17.5065 2.63905 17.281 2.45138 16.8913C1.78701 15.5082 1.41 13.9291 1.41 12.251C1.41 6.80858 5.37192 2.39631 10.2596 2.39631C10.7891 2.39631 11.3068 2.44828 11.8104 2.54719C12.6473 2.71231 13.2246 3.47842 13.1575 4.32835C13.0469 5.72898 13.5613 7.16398 14.6806 8.18239C15.4908 8.91916 16.4869 9.31982 17.4998 9.39274C18.2898 9.44974 18.9215 10.0734 19.0212 10.8596C19.079 11.3139 19.1084 11.7782 19.1084 12.2502C19.1084 12.9408 19.0447 13.6147 18.9232 14.2652C18.7867 14.9978 18.1994 15.5669 17.4646 15.6859C16.6344 15.8209 15.8435 16.2308 15.2403 16.9089C14.5265 17.711 14.2157 18.7319 14.2927 19.7244C14.3539 20.5165 13.9149 21.2683 13.1751 21.5558C12.2619 21.9112 11.28 22.104 10.2588 22.104L10.2613 22.1065Z" fill="url(#paint0_linear_22_31763)"></path>
    <defs>
        <linearGradient id="paint0_linear_22_31763" x1="11.3684" y1="0" x2="11.3684" y2="24" gradientUnits="userSpaceOnUse">
            <stop stop-color="#E92E2F"></stop>
            <stop offset="1" stop-color="#FF6126"></stop>
        </linearGradient>
    </defs>
</svg>
